<svg width="590.9236938476562px" height="150.94246520996094px" xmlns="http://www.w3.org/2000/svg" viewBox="-45.46184692382809 -0.4712326049804716 590.9236938476562 150.94246520996094" style="background: rgba(0, 0, 0, 0);" preserveAspectRatio="xMidYMid"><defs><linearGradient id="editing-outline-gradient" x1="-0.41354545764260087" x2="1.4135454576426008" y1="0.09326335692419985" y2="0.9067366430758002"><stop offset="0" stop-color="#ee4208"></stop><stop offset="1" stop-color="#4139ff"></stop></linearGradient><filter id="editing-outline" x="-100%" y="-100%" width="300%" height="300%"><feMorphology in="SourceGraphic" operator="dilate" radius="1" result="outline"></feMorphology><feComposite operator="out" in="outline" in2="SourceAlpha"></feComposite></filter></defs><g filter="url(#editing-outline)"><g transform="translate(40.572811275720596, 98.81500053405762)"><path d="M51.72-21.69L51.59-15.47L51.59-15.47Q51.59-13.19 52.09-11.75L52.09-11.75L52.09-11.75Q52.59-10.31 53.84-9.53L53.84-9.53L53.84-9.53Q53.88-9.38 53.88-9L53.88-9L53.88-8.53L53.88-8.53Q53.88-4.25 51.38-1.84L51.38-1.84L51.38-1.84Q48.88 0.56 44.92 0.56L44.92 0.56L44.92 0.56Q40.97 0.56 38.56-1.59L38.56-1.59L38.56-1.59Q35.72-4.09 35.72-9.25L35.72-9.25L35.72-19.13L35.72-19.13Q35.72-21.22 34.34-21.22L34.34-21.22L34.34-21.22Q33.81-21.22 33.50-20.97L33.50-20.97L34.06-16.31L34.06-9.25L34.06-9.25Q34.06-5 35.47-2.81L35.47-2.81L35.47-2.81Q33.97-1.22 31.73-0.33L31.73-0.33L31.73-0.33Q29.50 0.56 27.19 0.56L27.19 0.56L27.19 0.56Q23.44 0.56 21.38-1.25L21.38-1.25L21.38-1.25Q18.88-3.44 18.88-8.16L18.88-8.16L18.88-19.13L18.88-19.13Q18.88-21.22 17.50-21.22L17.50-21.22L17.50-21.22Q16.97-21.22 16.66-20.97L16.66-20.97L17.22-16.31L17.22-8.03L17.22-8.03Q17.22-4.53 18.16-2.63L18.16-2.63L18.16-2.63Q15.09 0.53 9.56 0.53L9.56 0.53L9.56 0.53Q6.28 0.53 4.03-1.13L4.03-1.13L4.03-1.13Q1.44-3.03 1.44-6.25L1.44-6.25L1.44-21.19L1.44-21.19Q-0.41-23.78-0.41-27.58L-0.41-27.58L-0.41-27.58Q-0.41-31.38 1.44-34.16L1.44-34.16L8.97-34.16L8.97-34.16Q11.19-34.16 12.75-32.50L12.75-32.50L12.75-32.50Q11.38-31.22 11.38-30.38L11.38-30.38L11.38-30.38Q11.38-29.41 12.47-29.41L12.47-29.41L12.47-29.41Q13.84-31.78 16.25-33.19L16.25-33.19L16.25-33.19Q19.06-34.78 22.84-34.78L22.84-34.78L22.84-34.78Q25.72-34.78 27.89-33.56L27.89-33.56L27.89-33.56Q30.06-32.34 31.13-30.75L31.13-30.75L31.13-30.75Q32.59-32.75 34.95-33.77L34.95-33.77L34.95-33.77Q37.31-34.78 39.88-34.78L39.88-34.78L39.88-34.78Q45.53-34.78 48.66-31.28L48.66-31.28L48.66-31.28Q51.72-27.78 51.72-21.69L51.72-21.69ZM71.06-17.41L71.06-17.41L71.06-11.94L71.06-11.94Q71.28-11.72 71.78-11.72L71.78-11.72L71.78-11.72Q72.28-11.72 72.50-12.06L72.50-12.06L72.50-12.06Q72.72-12.41 72.72-13.25L72.72-13.25L72.72-17.72L72.72-17.72Q72.72-20.72 72.47-21.70L72.47-21.70L72.47-21.70Q72.22-22.69 71.53-22.69L71.53-22.69L71.53-22.69Q71.09-22.69 70.78-22.38L70.78-22.38L70.78-22.38Q71.06-19.28 71.06-17.41ZM59.38-3.56L59.38-3.56L59.38-3.56Q54.25-8.50 54.25-16.95L54.25-16.95L54.25-16.95Q54.25-25.41 59.08-30.30L59.08-30.30L59.08-30.30Q63.91-35.19 71.75-35.19L71.75-35.19L71.75-35.19Q79.59-35.19 84.44-30.09L84.44-30.09L84.44-30.09Q89.25-25 89.25-16.83L89.25-16.83L89.25-16.83Q89.25-8.66 84.61-3.84L84.61-3.84L84.61-3.84Q79.97 0.97 72 0.97L72 0.97L72 0.97Q64.03 0.97 59.38-3.56ZM108.28 0.97L108.28 0.97L108.28 0.97Q100.16 0.97 95.33-4.05L95.33-4.05L95.33-4.05Q90.50-9.06 90.50-17.50L90.50-17.50L90.50-17.50Q90.50-25.94 95.97-30.84L95.97-30.84L95.97-30.84Q100.84-35.22 108.16-35.22L108.16-35.22L108.16-35.22Q114.66-35.22 118.94-32.02L118.94-32.02L118.94-32.02Q123.22-28.81 123.22-23.31L123.22-23.31L123.22-23.31Q123.22-19.50 120.86-17.11L120.86-17.11L120.86-17.11Q118.50-14.72 114.66-14.72L114.66-14.72L114.66-14.72Q111.53-14.72 109.45-16.39L109.45-16.39L109.45-16.39Q107.38-18.06 107-20.75L107-20.75L107-20.75Q105.63-20.75 105.63-19.75L105.63-19.75L105.63-19.75Q105.63-17.47 107.88-15.56L107.88-15.56L107.88-15.56Q110.47-13.31 114.33-13.31L114.33-13.31L114.33-13.31Q118.19-13.31 120.72-14.97L120.72-14.97L120.72-14.97Q122.28-12.56 122.28-9.13L122.28-9.13L122.28-9.13Q122.28-5.13 118.84-2.28L118.84-2.28L118.84-2.28Q114.91 0.97 108.28 0.97ZM157.47-21.56L157.38-15.47L157.38-15.47Q157.38-13.22 157.88-11.84L157.88-11.84L157.88-11.84Q158.38-10.47 159.63-9.69L159.63-9.69L159.63-9.69Q159.66-9.53 159.66-9.09L159.66-9.09L159.66-8.53L159.66-8.53Q159.66-4.22 157.17-1.83L157.17-1.83L157.17-1.83Q154.69 0.56 150.77 0.56L150.77 0.56L150.77 0.56Q146.84 0.56 144.41-1.66L144.41-1.66L144.41-1.66Q141.56-4.19 141.56-9.34L141.56-9.34L141.56-9.34Q141.56-11.53 141.77-13.20L141.77-13.20L141.77-13.20Q141.97-14.88 142.05-15.59L142.05-15.59L142.05-15.59Q142.13-16.31 142.22-16.94L142.22-16.94L142.22-16.94Q142.31-17.56 142.31-18.78L142.31-18.78L142.31-18.78Q142.31-20 141.98-20.53L141.98-20.53L141.98-20.53Q141.66-21.06 141.08-21.06L141.08-21.06L141.08-21.06Q140.50-21.06 140.06-20.81L140.06-20.81L140.47-15.72L140.47-15.72Q139.91-12.56 139.91-9.03L139.91-9.03L139.91-9.03Q139.91-5.50 141.50-2.59L141.50-2.59L141.50-2.59Q138.44 0.56 132.91 0.56L132.91 0.56L132.91 0.56Q129.75 0.56 127.44-1.09L127.44-1.09L127.44-1.09Q124.75-2.97 124.75-6.06L124.75-6.06L124.75-42.53L124.75-42.53Q126.25-43.41 128.36-43.97L128.36-43.97L128.36-43.97Q130.47-44.53 132.63-44.53L132.63-44.53L132.63-44.53Q136.22-44.53 138.56-43.13L138.56-43.13L138.56-43.13Q141.22-41.47 141.22-38.38L141.22-38.38L141.22-35.41L141.22-35.41Q138.50-35.25 136-33.84L136-33.84L136-33.84Q133.84-32.59 133.84-31.56L133.84-31.56L133.84-31.56Q133.84-31.22 134.09-30.95L134.09-30.95L134.09-30.95Q134.34-30.69 134.69-30.63L134.69-30.63L134.69-30.63Q136-32.16 138.39-33.19L138.39-33.19L138.39-33.19Q140.78-34.22 144.06-34.22L144.06-34.22L144.06-34.22Q147.34-34.22 149.97-33.22L149.97-33.22L149.97-33.22Q153.28-31.97 155.19-29.41L155.19-29.41L155.19-29.41Q157.47-26.28 157.47-21.56L157.47-21.56ZM192.31-21.59L192.31-15.47L192.31-15.47Q192.31-13.22 192.81-11.84L192.81-11.84L192.81-11.84Q193.31-10.47 194.56-9.69L194.56-9.69L194.56-9.69Q194.59-9.53 194.59-9.09L194.59-9.09L194.59-8.53L194.59-8.53Q194.59-4.09 191.91-1.63L191.91-1.63L191.91-1.63Q189.53 0.56 186.03 0.56L186.03 0.56L186.03 0.56Q183.66 0.56 181.69-0.56L181.69-0.56L181.69-0.56Q179.72-1.69 178.88-3.81L178.88-3.81L178.88-3.81Q177.81-3.81 177.81-2.78L177.81-2.78L177.81-2.78Q177.81-1.91 178.91-0.81L178.91-0.81L178.91-0.81Q176.88 0.56 172.78 0.56L172.78 0.56L172.78 0.56Q167 0.56 163.55-2.58L163.55-2.58L163.55-2.58Q160.09-5.72 160.09-11.36L160.09-11.36L160.09-11.36Q160.09-17 163.75-20.09L163.75-20.09L163.75-20.09Q167.09-22.88 172.41-22.88L172.41-22.88L172.41-22.88Q174.22-22.88 175.91-22.63L175.91-22.63L175.91-22.63Q177.03-22.41 177.13-22.38L177.13-22.38L177.13-22.38Q177.22-22.69 177.22-22.91L177.22-22.91L177.22-22.91Q177.22-23.72 175.84-24L175.84-24L175.84-24Q174.47-24.28 172.25-24.28L172.25-24.28L172.25-24.28Q167.53-24.28 164.19-22.38L164.19-22.38L164.19-22.38Q162.66-24.97 162.66-28.94L162.66-28.94L162.66-28.94Q162.66-31.19 163.22-32.28L163.22-32.28L163.22-32.28Q165.47-33.31 168.94-34.11L168.94-34.11L168.94-34.11Q172.41-34.91 176.25-34.91L176.25-34.91L176.25-34.91Q184.19-34.91 188.25-31.44L188.25-31.44L188.25-31.44Q192.31-27.97 192.31-21.59L192.31-21.59ZM176.09-13.94L176.09-13.94L176.09-13.94Q174.78-13.94 174.78-12.75L174.78-12.75L174.78-12.75Q174.78-11.63 176.31-11.63L176.31-11.63L176.31-11.63Q177.38-11.63 177.88-12.14L177.88-12.14L177.88-12.14Q178.38-12.66 178.38-13.94L178.38-13.94L178.38-13.94Q178.38-13.94 176.09-13.94ZM216.63-19.08L216.63-19.08L216.63-19.08Q216.63-16.84 215.98-15.08L215.98-15.08L215.98-15.08Q215.34-13.31 214-11.44L214-11.44L197.31-11.44L197.31-11.44Q194.72-15 194.72-19.06L194.72-19.06L194.72-19.06Q194.72-21.31 195.38-23.14L195.38-23.14L195.38-23.14Q196.03-24.97 197.31-26.88L197.31-26.88L214-26.88L214-26.88Q215.38-24.88 216-23.09L216-23.09L216-23.09Q216.63-21.31 216.63-19.08ZM221.88-10.72L221.88-19.75L223.81-19.75L223.81-19.75Q225.38-19.75 225.38-20.78L225.38-20.78L225.38-20.78Q225.38-20.91 225.31-21.16L225.31-21.16L218.31-21.16L218.31-21.16Q217.63-23.34 217.63-26.05L217.63-26.05L217.63-26.05Q217.63-28.75 218.03-30.44L218.03-30.44L218.03-30.44Q219.81-31.56 222.94-33.88L222.94-33.88L222.94-33.88Q223.81-36 225.22-40.63L225.22-40.63L225.22-40.63Q225.41-41.25 225.66-41.84L225.66-41.84L225.66-41.84Q228.09-42.47 231.22-42.47L231.22-42.47L231.22-42.47Q234.34-42.47 237.38-41.81L237.38-41.81L237.38-34.16L242.78-34.16L242.78-34.16Q244.59-31.41 244.59-27.69L244.59-27.69L244.59-27.69Q244.59-26 244.13-24.22L244.13-24.22L244.13-24.22Q243.66-22.44 242.78-21.19L242.78-21.19L238.31-21.19L238.31-16.47L238.31-16.47Q238.31-12.47 241.66-12.47L241.66-12.47L243-12.47L243-12.47Q243.66-10.09 243.66-8.34L243.66-8.34L243.66-8.34Q243.66-4.03 240.95-1.73L240.95-1.73L240.95-1.73Q238.25 0.56 233.11 0.56L233.11 0.56L233.11 0.56Q227.97 0.56 224.92-2.30L224.92-2.30L224.92-2.30Q221.88-5.16 221.88-10.72L221.88-10.72ZM261.47-17.41L261.47-17.41L261.47-11.94L261.47-11.94Q261.69-11.72 262.19-11.72L262.19-11.72L262.19-11.72Q262.69-11.72 262.91-12.06L262.91-12.06L262.91-12.06Q263.13-12.41 263.13-13.25L263.13-13.25L263.13-17.72L263.13-17.72Q263.13-20.72 262.88-21.70L262.88-21.70L262.88-21.70Q262.63-22.69 261.94-22.69L261.94-22.69L261.94-22.69Q261.50-22.69 261.19-22.38L261.19-22.38L261.19-22.38Q261.47-19.28 261.47-17.41ZM249.78-3.56L249.78-3.56L249.78-3.56Q244.66-8.50 244.66-16.95L244.66-16.95L244.66-16.95Q244.66-25.41 249.48-30.30L249.48-30.30L249.48-30.30Q254.31-35.19 262.16-35.19L262.16-35.19L262.16-35.19Q270-35.19 274.84-30.09L274.84-30.09L274.84-30.09Q279.66-25 279.66-16.83L279.66-16.83L279.66-16.83Q279.66-8.66 275.02-3.84L275.02-3.84L275.02-3.84Q270.38 0.97 262.41 0.97L262.41 0.97L262.41 0.97Q254.44 0.97 249.78-3.56ZM297.72-17.41L297.72-17.41L297.72-11.94L297.72-11.94Q297.94-11.72 298.44-11.72L298.44-11.72L298.44-11.72Q298.94-11.72 299.16-12.06L299.16-12.06L299.16-12.06Q299.38-12.41 299.38-13.25L299.38-13.25L299.38-17.72L299.38-17.72Q299.38-20.72 299.13-21.70L299.13-21.70L299.13-21.70Q298.88-22.69 298.19-22.69L298.19-22.69L298.19-22.69Q297.75-22.69 297.44-22.38L297.44-22.38L297.44-22.38Q297.72-19.28 297.72-17.41ZM286.03-3.56L286.03-3.56L286.03-3.56Q280.91-8.50 280.91-16.95L280.91-16.95L280.91-16.95Q280.91-25.41 285.73-30.30L285.73-30.30L285.73-30.30Q290.56-35.19 298.41-35.19L298.41-35.19L298.41-35.19Q306.25-35.19 311.09-30.09L311.09-30.09L311.09-30.09Q315.91-25 315.91-16.83L315.91-16.83L315.91-16.83Q315.91-8.66 311.27-3.84L311.27-3.84L311.27-3.84Q306.63 0.97 298.66 0.97L298.66 0.97L298.66 0.97Q290.69 0.97 286.03-3.56ZM333.59-37.72L333.59-37.72L333.59-15.75L333.59-15.75Q333.59-11.09 335.84-9.69L335.84-9.69L335.84-9.69Q335.88-9.53 335.88-9.09L335.88-9.09L335.88-8.53L335.88-8.53Q335.88-4.06 333.61-1.75L333.61-1.75L333.61-1.75Q331.34 0.56 327.19 0.56L327.19 0.56L327.19 0.56Q323.03 0.56 320.59-1.75L320.59-1.75L320.59-1.75Q317.69-4.50 317.69-10.06L317.69-10.06L317.69-42.53L317.69-42.53Q320.97-44.53 325.20-44.53L325.20-44.53L325.20-44.53Q329.44-44.53 331.52-42.73L331.52-42.73L331.52-42.73Q333.59-40.94 333.59-37.72ZM352.78-11.75L352.78-11.75L351.28-11.09L351.28-11.09Q351.28-9 352.09-6.63L352.09-6.63L352.09-6.63Q352.78-4.38 354-2.63L354-2.63L354-2.63Q350.91 0.56 345.41 0.56L345.41 0.56L345.41 0.56Q342.25 0.56 339.94-1.09L339.94-1.09L339.94-1.09Q337.25-2.97 337.25-6.06L337.25-6.06L337.25-42.53L337.25-42.53Q338.75-43.41 340.86-43.97L340.86-43.97L340.86-43.97Q342.97-44.53 345.13-44.53L345.13-44.53L345.13-44.53Q348.72-44.53 351.06-43.13L351.06-43.13L351.06-43.13Q353.72-41.47 353.72-38.38L353.72-38.38L353.72-35.06L353.72-35.06Q353.72-30.91 352.25-26.94L352.25-26.94L352.25-26.94Q351.97-26.53 351.25-25.77L351.25-25.77L351.25-25.77Q350.53-25 350.11-24.38L350.11-24.38L350.11-24.38Q349.69-23.75 349.69-23.30L349.69-23.30L349.69-23.30Q349.69-22.84 350.44-22.47L350.44-22.47L350.44-22.47Q352.88-24.75 354.27-27.44L354.27-27.44L354.27-27.44Q355.66-30.13 356.81-34.56L356.81-34.56L356.81-34.56Q357.22-34.63 357.75-34.72L357.75-34.72L357.75-34.72Q358.28-34.81 359.52-35.02L359.52-35.02L359.52-35.02Q360.75-35.22 361.25-35.22L361.25-35.22L361.25-35.22Q366.06-35.22 368.75-33.02L368.75-33.02L368.75-33.02Q371.44-30.81 371.44-26.97L371.44-26.97L371.44-26.97Q371.44-23.13 369-20.38L369-20.38L369-20.38Q366.75-17.91 363.16-16.66L363.16-16.66L363.16-16.66Q366.03-14.97 370.41-14.25L370.41-14.25L370.41-14.25Q372.09-11.19 372.09-7.73L372.09-7.73L372.09-7.73Q372.09-4.28 369.91-1.97L369.91-1.97L369.91-1.97Q367.47 0.56 363.17 0.56L363.17 0.56L363.17 0.56Q358.88 0.56 356.11-2.73L356.11-2.73L356.11-2.73Q353.34-6.03 352.78-11.75ZM389.22-28.13L389.22-28.13L389.22-15.75L389.22-15.75Q389.22-11.09 391.47-9.69L391.47-9.69L391.47-9.69Q391.50-9.53 391.50-9.09L391.50-9.09L391.50-8.53L391.50-8.53Q391.50-3.94 389-1.63L389-1.63L389-1.63Q386.69 0.56 382.83 0.56L382.83 0.56L382.83 0.56Q378.97 0.56 376.47-1.63L376.47-1.63L376.47-1.63Q373.31-4.41 373.31-9.75L373.31-9.75L373.31-30.06L373.31-30.06Q373.88-30.47 374.53-30.72L374.53-30.72L374.53-30.72Q375.19-30.97 375.91-31.34L375.91-31.34L375.91-31.34Q374.56-32.03 373.47-33.73L373.47-33.73L373.47-33.73Q372.38-35.44 372.38-37.72L372.38-37.72L372.38-37.72Q372.38-41.66 374.97-44.16L374.97-44.16L374.97-44.16Q377.56-46.66 381.33-46.66L381.33-46.66L381.33-46.66Q385.09-46.66 387.64-44.11L387.64-44.11L387.64-44.11Q390.19-41.56 390.19-37.72L390.19-37.72L390.19-37.72Q390.19-34.63 388.25-32.30L388.25-32.30L388.25-32.30Q386.31-29.97 383.53-29.38L383.53-29.38L383.53-29.38Q383.53-28.19 384.44-28.19L384.44-28.19L384.44-28.19Q386.03-28.19 387.69-29.44L387.69-29.44L387.69-29.44Q388.94-28.47 389.22-28.13ZM395.56-10.72L395.56-19.75L397.50-19.75L397.50-19.75Q399.06-19.75 399.06-20.78L399.06-20.78L399.06-20.78Q399.06-20.91 399-21.16L399-21.16L392-21.16L392-21.16Q391.31-23.34 391.31-26.05L391.31-26.05L391.31-26.05Q391.31-28.75 391.72-30.44L391.72-30.44L391.72-30.44Q393.50-31.56 396.63-33.88L396.63-33.88L396.63-33.88Q397.50-36 398.91-40.63L398.91-40.63L398.91-40.63Q399.09-41.25 399.34-41.84L399.34-41.84L399.34-41.84Q401.78-42.47 404.91-42.47L404.91-42.47L404.91-42.47Q408.03-42.47 411.06-41.81L411.06-41.81L411.06-34.16L416.47-34.16L416.47-34.16Q418.28-31.41 418.28-27.69L418.28-27.69L418.28-27.69Q418.28-26 417.81-24.22L417.81-24.22L417.81-24.22Q417.34-22.44 416.47-21.19L416.47-21.19L412-21.19L412-16.47L412-16.47Q412-12.47 415.34-12.47L415.34-12.47L416.69-12.47L416.69-12.47Q417.34-10.09 417.34-8.34L417.34-8.34L417.34-8.34Q417.34-4.03 414.64-1.73L414.64-1.73L414.64-1.73Q411.94 0.56 406.80 0.56L406.80 0.56L406.80 0.56Q401.66 0.56 398.61-2.30L398.61-2.30L398.61-2.30Q395.56-5.16 395.56-10.72L395.56-10.72Z" fill="url(#editing-outline-gradient)"></path></g></g><style>text {
  font-size: 64px;
  font-family: Arial Black;
  dominant-baseline: central;
  text-anchor: middle;
}</style></svg>